<?xml version="1.0" standalone="no"?>
<!DOCTYPE svg PUBLIC "-//W3C//DTD SVG 20010904//EN"
 "http://www.w3.org/TR/2001/REC-SVG-20010904/DTD/svg10.dtd">
<svg version="1.0" xmlns="http://www.w3.org/2000/svg"
 width="1275.000000pt" height="1275.000000pt" viewBox="0 0 1275.000000 1275.000000"
 preserveAspectRatio="xMidYMid meet">
<metadata>
Created by potrace 1.11, written by Peter Selinger 2001-2013
</metadata>
<g transform="translate(0.000000,1275.000000) scale(0.100000,-0.100000)"
fill="#000000" stroke="none">
<path d="M6267 12094 c-1 -1 -63 -5 -137 -8 -74 -4 -148 -9 -165 -10 -16 -2
-64 -7 -105 -10 -41 -4 -86 -9 -100 -11 -14 -2 -45 -7 -70 -10 -25 -3 -56 -8
-70 -10 -14 -2 -45 -7 -70 -10 -82 -11 -393 -76 -510 -106 -817 -212 -1548
-579 -2200 -1103 -247 -199 -586 -528 -756 -736 -16 -19 -37 -44 -48 -55 -10
-11 -48 -58 -84 -105 -37 -47 -70 -89 -75 -95 -54 -67 -188 -261 -319 -465
-166 -258 -360 -657 -492 -1012 -84 -227 -194 -597 -220 -741 -2 -15 -7 -35
-10 -45 -6 -19 -13 -57 -22 -112 -3 -19 -7 -42 -9 -50 -16 -54 -60 -358 -70
-480 -4 -41 -8 -91 -11 -110 -23 -204 -23 -687 1 -940 2 -25 7 -76 10 -115 7
-84 9 -93 35 -270 73 -487 210 -964 407 -1418 70 -163 193 -412 262 -531 28
-49 51 -90 51 -92 0 -3 144 -231 206 -324 86 -131 325 -443 419 -546 6 -6 42
-46 80 -89 102 -114 286 -298 395 -395 52 -47 103 -93 115 -104 44 -40 305
-246 390 -307 484 -347 991 -606 1546 -790 148 -49 470 -139 552 -155 20 -3
73 -14 147 -29 68 -14 312 -55 363 -60 32 -4 66 -8 76 -10 10 -2 54 -6 97 -10
43 -4 90 -9 104 -11 171 -22 816 -22 960 0 14 2 59 7 100 10 41 4 86 8 100 10
22 4 217 33 275 41 11 1 47 8 80 14 33 6 71 13 85 16 36 7 115 24 189 42 36 8
72 16 81 18 38 7 350 99 415 122 39 14 108 38 155 54 90 32 93 33 320 130 756
321 1491 859 2044 1494 43 50 88 101 100 115 98 113 262 338 391 535 385 589
683 1311 816 1980 12 63 29 118 39 128 14 16 40 18 215 22 299 5 302 -6 -95
375 -137 132 -532 514 -587 568 -78 75 -94 85 -125 73 -13 -5 -113 -102 -223
-217 -110 -114 -225 -233 -255 -264 -500 -517 -499 -516 -466 -549 14 -13 48
-15 250 -13 145 2 236 -1 240 -7 14 -21 -105 -435 -187 -653 -94 -249 -244
-553 -390 -793 -46 -75 -195 -296 -248 -365 -137 -183 -373 -450 -504 -571
-16 -15 -55 -52 -86 -81 -54 -50 -108 -97 -209 -181 -60 -50 -51 -43 -181
-139 -95 -71 -373 -258 -383 -258 -1 0 -56 -31 -122 -68 -136 -78 -324 -171
-469 -231 -55 -23 -109 -46 -120 -51 -97 -46 -475 -162 -667 -205 -126 -29
-128 -29 -253 -50 -137 -24 -173 -29 -280 -41 -33 -3 -73 -8 -90 -10 -182 -22
-734 -22 -875 0 -14 3 -52 7 -85 10 -83 9 -135 15 -165 21 -14 3 -38 7 -55 9
-846 131 -1635 490 -2309 1050 -116 96 -413 385 -510 496 -133 151 -406 513
-406 537 0 4 -8 16 -19 27 -67 74 -319 551 -403 761 -11 28 -25 61 -31 75 -6
14 -11 27 -12 30 -1 3 -4 12 -8 20 -9 25 -65 182 -80 230 -39 119 -103 353
-122 450 -2 8 -10 50 -19 92 -9 42 -19 93 -22 114 -3 20 -7 44 -9 53 -1 9 -6
41 -10 71 -4 30 -9 63 -11 73 -2 10 -6 46 -9 80 -3 34 -8 76 -10 92 -23 176
-23 689 0 870 2 17 6 53 9 80 13 124 30 243 47 331 5 28 12 64 15 80 10 55 65
289 85 359 26 88 78 255 86 275 3 8 7 20 8 25 2 6 21 57 43 115 241 629 595
1174 1071 1651 211 210 345 327 561 485 111 81 310 213 360 239 19 9 42 23 50
30 29 24 375 204 458 238 285 117 365 147 567 211 166 52 503 128 665 150 199
27 225 30 405 42 187 13 562 8 730 -10 17 -2 62 -6 100 -10 39 -4 77 -9 85
-11 8 -2 35 -6 60 -9 293 -32 719 -146 1079 -289 385 -152 862 -426 1146 -658
299 -245 499 -439 725 -704 264 -310 557 -784 732 -1185 89 -203 190 -483 239
-663 23 -84 42 -114 65 -99 5 4 32 36 59 72 27 36 53 70 58 75 4 6 55 73 113
150 137 183 140 185 168 185 15 0 66 -31 133 -82 375 -284 396 -299 414 -281
9 9 6 35 -10 105 -12 51 -23 102 -25 113 -26 126 -156 546 -203 655 -8 19 -19
44 -23 55 -65 167 -209 475 -300 640 -92 168 -313 514 -397 620 -13 17 -27 35
-31 40 -4 6 -30 39 -57 75 -233 308 -574 656 -909 929 -192 156 -524 390 -657
462 -24 13 -46 26 -49 29 -30 30 -460 248 -646 328 -197 84 -596 229 -684 247
-8 2 -42 11 -75 20 -61 18 -414 100 -463 109 -15 2 -70 12 -122 21 -52 9 -106
18 -120 19 -42 5 -134 18 -154 22 -10 2 -50 6 -90 9 -39 3 -84 7 -101 9 -92
12 -667 29 -678 20z"/>
<path d="M6467 9714 c-1 -1 -56 -5 -122 -8 -132 -7 -214 -14 -260 -21 -16 -2
-52 -7 -80 -10 -27 -3 -75 -10 -105 -16 -30 -5 -68 -12 -85 -14 -16 -3 -35 -7
-41 -9 -8 -3 -11 -169 -11 -571 0 -423 3 -565 12 -561 104 39 340 98 450 111
33 4 69 9 80 12 23 5 224 14 359 16 l90 2 0 533 1 532 -35 1 c-81 2 -252 4
-253 3z"/>
<path d="M7539 9573 c0 -5 -1 -273 -2 -597 l-2 -589 25 -16 c82 -52 214 -160
328 -269 37 -35 77 -68 89 -72 41 -17 83 -1 169 62 48 35 99 72 114 83 16 11
117 85 225 165 108 80 236 173 283 208 152 109 154 119 45 234 -364 380 -705
606 -1148 761 -89 31 -125 39 -126 30z"/>
<path d="M4875 9329 c-55 -28 -124 -64 -155 -81 -57 -33 -281 -177 -290 -187
-3 -3 -32 -26 -65 -51 -197 -146 -421 -372 -582 -585 -275 -364 -482 -808
-593 -1270 -49 -204 -73 -357 -97 -625 -15 -169 -8 -657 12 -800 2 -14 6 -47
9 -75 4 -27 9 -63 12 -80 5 -33 23 -139 29 -170 58 -331 231 -782 421 -1095
312 -516 739 -914 1274 -1187 l125 -64 3 702 2 702 -37 44 c-190 224 -305 407
-410 653 -76 179 -149 436 -178 635 -4 22 -8 50 -10 63 -19 117 -27 528 -12
674 13 133 17 157 52 328 24 117 106 374 126 394 5 6 9 16 9 23 0 35 195 391
249 455 6 7 25 31 42 53 40 54 53 69 116 141 l53 61 -2 696 -3 695 -100 -49z"/>
<path d="M8085 4571 c-11 -5 -45 -37 -75 -72 -100 -118 -254 -264 -364 -346
l-110 -82 0 -606 c-1 -579 0 -605 17 -605 28 0 272 84 389 134 219 93 404 203
602 355 89 69 353 333 435 436 91 114 91 121 -9 196 -66 50 -721 516 -809 576
-36 25 -45 26 -76 14z"/>
<path d="M5763 3375 c0 -311 3 -568 7 -570 6 -4 31 -9 103 -20 17 -3 43 -7 57
-10 14 -2 43 -7 65 -9 22 -3 65 -8 95 -12 30 -4 69 -8 85 -9 185 -15 250 -18
370 -18 77 0 156 1 175 2 l35 1 -2 527 c0 291 -2 531 -2 535 -1 3 -63 6 -138
6 -174 -1 -267 7 -423 32 -123 20 -231 47 -344 85 -41 14 -76 25 -79 25 -2 0
-4 -254 -4 -565z"/>
</g>
</svg>
