<?xml version="1.0" encoding="UTF-8" standalone="no"?>
<svg width="255px" height="250px" viewBox="0 0 255 250" version="1.1" xmlns="http://www.w3.org/2000/svg" xmlns:xlink="http://www.w3.org/1999/xlink">
    <!-- Generator: Sketch 47 (45396) - http://www.bohemiancoding.com/sketch -->
    <title>Artboard</title>
    <desc>Created with Sketch.</desc>
    <defs>
        <linearGradient x1="20.7890625%" y1="33.6328125%" x2="88.375%" y2="82.478125%" id="linearGradient-1">
            <stop stop-color="#8247A6" offset="0%"></stop>
            <stop stop-color="#AD4CC2" offset="100%"></stop>
        </linearGradient>
    </defs>
    <g id="Page-1" stroke="none" stroke-width="1" fill="none" fill-rule="evenodd">
        <g id="Artboard">
            <g id="Icon" transform="translate(-5.000000, -8.000000)">
                <g id="Circle" transform="translate(138.545577, 134.479055) rotate(10.000000) translate(-138.545577, -134.479055) translate(19.045577, 19.479055)" fill="url(#linearGradient-1)">
                    <path d="M115,230 C51.4872538,230 0,178.512746 0,115 C0,51.4872538 51.4872538,0 115,0 C162.831217,0 204.528399,28.9413162 221.177755,70.7486471 C221.325935,71.1207346 221.283945,71.3842044 221.136504,71.5003327 C220.989064,71.6164611 220.666263,71.7198693 220.29668,71.5437502 C217.961413,70.430916 214.506787,68.6706963 209.932803,66.2630912 C209.577916,66.1128398 209.265227,66.0844742 208.994737,66.1779943 C208.724248,66.2715144 208.484909,66.4907397 208.276722,66.8356703 C206.065201,71.2154953 204.394428,74.4945708 203.264405,76.6728969 C203.099323,76.9911219 202.860695,77.2931263 202.493807,77.1943215 C202.12692,77.0955167 201.98669,76.7334492 201.830628,76.4002089 C186.394995,43.4404871 153.723512,20 115,20 C62.5329488,20 20,62.5329488 20,115 C20,167.467051 62.5329488,210 115,210 C165.942667,210 207.520098,169.902663 209.893088,119.547197 C209.82797,119.227292 209.590537,119.102045 209.180788,119.171455 L200.961491,120.769125 C200.371633,120.804749 199.99134,120.678204 199.820612,120.389489 C199.649884,120.100774 199.695743,119.661767 199.958191,119.072468 L214.559779,97.4247238 C214.808451,97.1077359 215.072722,96.9193126 215.352593,96.8594541 C215.632464,96.7995955 215.939365,96.8658568 216.273296,97.0582381 L238.053029,111.748854 C238.446824,112.070288 238.645402,112.41816 238.648764,112.79247 C238.652126,113.16678 238.368065,113.438993 237.79658,113.609109 C233.493867,114.423922 231.225244,114.864897 230.990713,114.932035 C230.40386,115.100031 230.138715,115.328435 230.058642,115.752667 C229.312228,179.19769 178.088872,230 115,230 Z" id="Combined-Shape"></path>
                </g>
                <g id="Letter" transform="translate(66.000000, 66.000000)" fill="#8247A6">
                    <path d="M74.0782254,21.8619055 C73.0725138,21.7788327 72.0653168,21.7372965 71.0566331,21.7372965 C64.9340947,21.7372965 59.3310592,22.701936 54.2473953,24.6312408 L54.2473953,1.91389008 C59.5171767,0.851293688 65.0576152,0.32 70.8687621,0.32 C71.9480054,0.32 73.0178289,0.342872135 74.0782329,0.388616487 L74.0782254,21.8619055 Z M89.7341439,26.8602504 C92.3209216,28.5089575 94.9554957,30.6930522 97.6378902,33.4125522 C98.1069364,33.8880867 98.4524722,34.0335438 99.0732636,34.1305959 C99.6940551,34.227648 100.195667,34.0461239 100.768793,33.6250519 C104.244853,31.0712118 109.349643,27.3207537 116.083164,22.3736774 C116.535033,22.0416919 116.788023,21.7196124 116.791575,21.2451346 C116.795127,20.7706568 116.657198,20.4470209 116.252499,20.0019126 C109.954785,13.0753766 103.187193,8.11168768 95.9495435,5.11071105 C93.9232402,4.27053652 91.8514419,3.54087278 89.7341439,2.92171894 L89.7341439,26.8602504 Z M74.0782254,118.54256 C73.076566,118.633349 72.069369,118.678744 71.0566331,118.678744 C64.9340947,118.678744 59.3310592,117.68937 54.2473953,115.710596 L54.2473953,138.50215 C59.5171767,139.564746 65.0576152,140.09604 70.8687621,140.09604 C71.9454304,140.09604 73.0152514,140.073222 74.0782254,140.027584 L74.0782254,118.54256 Z M89.7341439,113.110402 C93.3321066,110.792966 96.7469884,107.660108 99.9788442,103.711782 C100.297046,103.323038 100.536955,103.145664 100.892446,103.069778 C101.247938,102.993893 101.749408,103.10621 102.16005,103.398397 C106.068542,106.17944 111.854587,110.296433 119.518183,115.749376 C119.831226,115.972119 119.94718,116.202754 119.989948,116.485425 C120.032715,116.768095 119.993395,117.06886 119.753706,117.385949 C113.878404,125.158484 106.789168,130.84975 98.4858023,134.459909 C95.6301122,135.701514 92.7128961,136.737978 89.7341439,137.569304 L89.7341439,113.110402 Z M38.5914769,34.9118613 C38.3895161,35.1208839 38.1894683,35.3322023 37.9913333,35.5458166 C33.9833981,39.8668717 30.8835573,44.908027 28.6917177,50.6694338 C26.4998782,56.4308406 25.4039749,62.6305223 25.4039749,69.268665 C25.4039749,76.4077995 26.4998782,82.9832195 28.6917177,88.9951222 C30.8835573,95.007025 33.9833981,100.204738 37.9913333,104.588417 C38.1894683,104.805127 38.3895161,105.019541 38.5914769,105.23166 L38.5914769,133.429531 C31.6945868,130.269783 25.6392694,126.135677 20.4253928,121.027131 C14.2256181,114.952605 9.37233188,107.65702 5.86538861,99.1401574 C2.35844533,90.6232952 0.605,81.167215 0.605,70.7716331 C0.605,60.1255553 2.35844533,50.4502945 5.86538861,41.7455603 C9.37233188,33.0408261 14.2256181,25.6199949 20.4253928,19.4828442 C25.6392694,14.321633 31.6945868,10.1570077 38.5914769,6.98888414 L38.5914769,34.9118613 Z" id="Combined-Shape"></path>
                </g>
            </g>
        </g>
    </g>
</svg>